#N canvas 567 49 803 563 10;
#X symbolatom 94 232 10 0 0 0 - - -;
#X obj 63 197 keyname;
#X floatatom 177 366 5 0 0 0 - - -;
#X obj 367 101 mtof;
#X floatatom 367 132 5 0 0 0 - - -;
#X obj 368 303 osc~;
#X obj 371 361 hip~ 5;
#X obj 561 156 tgl 15 0 empty empty empty 17 7 0 10 -262144 -1 -1 0
1;
#X obj 562 222 sel 1 0;
#X obj 566 317 line~;
#X obj 409 161 *;
#X floatatom 409 194 5 0 0 0 - - -;
#X floatatom 443 138 5 0 0 0 - - -;
#X msg 446 194 10 \, 1000 300;
#X obj 449 230 line~;
#X obj 408 230 osc~;
#X obj 408 262 *~;
#X obj 368 277 +~;
#X obj 370 334 *~;
#X msg 100 312 91;
#X msg 125 311 93;
#X msg 149 311 95;
#X msg 174 311 96;
#X msg 196 310 98;
#X msg 219 310 100;
#X msg 249 310 101;
#X msg 281 310 103;
#X obj 98 266 sel s d f g h j k l;
#X obj 369 398 output~;
#X msg 563 270 1 3;
#X msg 618 269 0 750;
#X connect 0 0 27 0;
#X connect 1 0 7 0;
#X connect 1 1 0 0;
#X connect 2 0 3 0;
#X connect 3 0 4 0;
#X connect 4 0 10 0;
#X connect 4 0 17 0;
#X connect 5 0 18 0;
#X connect 6 0 28 0;
#X connect 6 0 28 1;
#X connect 7 0 8 0;
#X connect 8 0 29 0;
#X connect 8 1 30 0;
#X connect 9 0 18 1;
#X connect 10 0 11 0;
#X connect 11 0 15 0;
#X connect 12 0 10 1;
#X connect 13 0 14 0;
#X connect 14 0 16 1;
#X connect 15 0 16 0;
#X connect 16 0 17 1;
#X connect 17 0 5 0;
#X connect 18 0 6 0;
#X connect 19 0 2 0;
#X connect 20 0 2 0;
#X connect 21 0 2 0;
#X connect 22 0 2 0;
#X connect 23 0 2 0;
#X connect 24 0 2 0;
#X connect 25 0 2 0;
#X connect 26 0 2 0;
#X connect 27 0 19 0;
#X connect 27 1 20 0;
#X connect 27 2 21 0;
#X connect 27 3 22 0;
#X connect 27 4 23 0;
#X connect 27 5 24 0;
#X connect 27 6 25 0;
#X connect 27 7 26 0;
#X connect 29 0 9 0;
#X connect 30 0 9 0;
